# xmcd
#
# Track frame offsets:
#	150
#	43406
#	68140
#	124497
#	159397
#	188322
#	212004
#	267999
#	298338
#	324651
#
# Disc length: 4727 seconds
#
# Revision: 0
# Processed by: cddbd v1.5.2PL0 Copyright (c) Steve Scherf et al.
# Submitted via: audiograbber 1.83.01
#
DISCID=9d12750a
DTITLE=Grateful Dead - 93-09-28 Boston Garden, Boston MA
DYEAR=1900
DGENRE=
TTITLE0=Touch Of Grey
TTITLE1=Greatest Story Ever Told
TTITLE2=Row Jimmy
TTITLE3=New Minglewood Blues
TTITLE4=So Many Roads
TTITLE5=When I Paint My Masterpiece
TTITLE6=Bird Song
TTITLE7=China Cat Sunflower
TTITLE8=I Know You Rider
TTITLE9=Samson and Delilah
EXTD=
EXTT0=
EXTT1=
EXTT2=
EXTT3=
EXTT4=
EXTT5=
EXTT6=
EXTT7=
EXTT8=
EXTT9=
PLAYORDER=
